<svg id="el_gjrlw1erU" data-name="Livello 1" xmlns="http://www.w3.org/2000/svg" viewBox="0 0 283 283">
    <style>
        @-webkit-keyframes el_wfCWwWclQv_0Zhtpw8dr_Animation{0%{-webkit-transform: translate(50px, -50px);transform: translate(50px, -50px);}100%{-webkit-transform: translate(0px, 0px);transform: translate(0px, 0px);}}@keyframes el_wfCWwWclQv_0Zhtpw8dr_Animation{0%{-webkit-transform: translate(50px, -50px);transform: translate(50px, -50px);}100%{-webkit-transform: translate(0px, 0px);transform: translate(0px, 0px);}}@-webkit-keyframes el_sfYRftQOzK_Q2uwD3nuZ_Animation{0%{-webkit-transform: translate(-50px, 50px);transform: translate(-50px, 50px);}100%{-webkit-transform: translate(0px, 0px);transform: translate(0px, 0px);}}@keyframes el_sfYRftQOzK_Q2uwD3nuZ_Animation{0%{-webkit-transform: translate(-50px, 50px);transform: translate(-50px, 50px);}100%{-webkit-transform: translate(0px, 0px);transform: translate(0px, 0px);}}#el_gjrlw1erU *{-webkit-animation-duration: 2s;animation-duration: 2s;-webkit-animation-timing-function: cubic-bezier(0, 0, 1, 1);animation-timing-function: cubic-bezier(0, 0, 1, 1);}#el_wfCWwWclQv{fill: gray;}#el_sfYRftQOzK{fill: #247ea4;}#el_wfCWwWclQv_0Zhtpw8dr{-webkit-transform-origin: 50% 50%;transform-origin: 50% 50%;transform-box: fill-box;-webkit-transform: translate(0px, 0px);transform: translate(0px, 0px);-webkit-animation-name: el_wfCWwWclQv_0Zhtpw8dr_Animation;animation-name: el_wfCWwWclQv_0Zhtpw8dr_Animation;-webkit-animation-timing-function: cubic-bezier(0, 0, 0.58, 1);animation-timing-function: cubic-bezier(0, 0, 0.58, 1);}#el_sfYRftQOzK_Q2uwD3nuZ{-webkit-transform-origin: 50% 50%;transform-origin: 50% 50%;transform-box: fill-box;-webkit-transform: translate(0px, 0px);transform: translate(0px, 0px);-webkit-animation-name: el_sfYRftQOzK_Q2uwD3nuZ_Animation;animation-name: el_sfYRftQOzK_Q2uwD3nuZ_Animation;-webkit-animation-timing-function: cubic-bezier(0, 0, 0.58, 1);animation-timing-function: cubic-bezier(0, 0, 0.58, 1);}
    </style>
    <defs/>
    <title>
        AB_logo
    </title>
    <g id="el_wfCWwWclQv_0Zhtpw8dr" data-animator-group="true" data-animator-type="0">
        <path d="M174.54,108.61c-1.37,2-4.07,2.23-4.76-.57a9,9,0,0,0-.64.95,54.81,54.81,0,0,1-10.72,15.77,5.8,5.8,0,0,1-2.61,1.41,4,4,0,0,1-5.09-4.17,5.73,5.73,0,0,1,1.6-3.18c1.17-1.52,5.74-5,10.56-15.41a26.16,26.16,0,0,0,1.61-15.47A25.61,25.61,0,0,0,158,75.22a30.49,30.49,0,0,0-9.53-7c-2.4-1-4.27-2-7.16-2.18a43,43,0,0,0-7.52-.22,27.76,27.76,0,0,0-8.73,2.59,20,20,0,0,0-2.16,1.23,24.87,24.87,0,0,1-6.21,2.85c-1.63.14-1.3-1.69-.65-3.3.47-1.17,2.17-3.93,3.25-4.65a41.09,41.09,0,0,1,15.17-6.4,42.12,42.12,0,0,1,14.38-.39,44.65,44.65,0,0,1,8.5,2.21,38.67,38.67,0,0,1,10.24,5.62,40.32,40.32,0,0,1,10.69,11.83,41.8,41.8,0,0,1,5,12.8,41.16,41.16,0,0,1,.89,8,43.81,43.81,0,0,1-.54,7.13A48.24,48.24,0,0,1,181,114.7a34.85,34.85,0,0,1-3.39,6.38,6.09,6.09,0,0,1-2.16,2.38,4.07,4.07,0,0,1-5.83-3.09,4.48,4.48,0,0,1,1.17-3.5,15.82,15.82,0,0,0,1.6-2.68C173.28,112.46,174.33,110.76,174.54,108.61Z" id="el_wfCWwWclQv"/>
    </g>
    <g id="el_sfYRftQOzK_Q2uwD3nuZ" data-animator-group="true" data-animator-type="0">
        <path d="M110.9,89c1.4-1.93,4.12-2.15,4.75.66a8.18,8.18,0,0,0,.65-.94,55.12,55.12,0,0,1,11-15.55A5.8,5.8,0,0,1,130,71.79a4,4,0,0,1,5,4.26,5.75,5.75,0,0,1-1.66,3.16A49.61,49.61,0,0,0,122.46,94.4a26,26,0,0,0-1.92,15.43,25.52,25.52,0,0,0,6.24,12.85,30.5,30.5,0,0,0,9.38,7.19c2.39,1,4.24,2,7.13,2.32a42.67,42.67,0,0,0,7.5.38,28.07,28.07,0,0,0,8.79-2.42,21,21,0,0,0,2.18-1.19,25,25,0,0,1,6.27-2.73c1.63-.1,1.26,1.73.58,3.32-.5,1.16-2.25,3.89-3.34,4.59a41.46,41.46,0,0,1-15.3,6.09,42.15,42.15,0,0,1-14.39.1,44.84,44.84,0,0,1-8.45-2.38A38.79,38.79,0,0,1,117,132.13a40.27,40.27,0,0,1-10.44-12,41.64,41.64,0,0,1-5.49-21,43.67,43.67,0,0,1,.69-7.11,47.82,47.82,0,0,1,2.77-9.27,34.82,34.82,0,0,1,3.52-6.31,6.12,6.12,0,0,1,2.21-2.34A4.07,4.07,0,0,1,116,77.31a4.51,4.51,0,0,1-1.23,3.48,15.41,15.41,0,0,0-1.66,2.64A15.82,15.82,0,0,0,110.9,89Z" id="el_sfYRftQOzK"/>
    </g>
    <script>
        (function(){var a=document.querySelector('#el_gjrlw1erU'),b=a.querySelectorAll('style'),c=function(d){b.forEach(function(f){var g=f.textContent;g&amp;&amp;(f.textContent=g.replace(/transform-box:[^;\r\n]*/gi,'transform-box: '+d))})};c('initial'),window.requestAnimationFrame(function(){return c('fill-box')})})();
    </script>
</svg>