
<svg id="Livello_1" data-name="Livello 1" xmlns="http://www.w3.org/2000/svg" viewBox="0 0 283.46 283.46"><defs><style>.cls-1{fill:gray;}.cls-2{fill:#247ea4;}</style></defs><title>AB_logo</title><path class="cls-2" d="M33.68,175.3,23.44,201H25l.61-1.86,2.61-6.55H39.75l2.42,6.52.57,1.89h1.47L34.82,175.3Zm5.6,15.95H28.71l5.49-13.83Z"/><polygon class="cls-2" points="50.22 199.7 50.22 180.47 48.91 180.47 48.91 200.97 58.35 200.97 58.53 200.02 58.31 199.7 50.22 199.7"/><polygon class="cls-2" points="64.67 199.7 64.67 191.37 72.29 191.37 72.46 190.4 72.27 190.03 64.67 190.03 64.67 181.78 73.89 181.82 74.13 180.89 73.88 180.47 63.36 180.47 63.36 200.97 74.01 200.97 74.25 200 73.95 199.7 64.67 199.7"/><path class="cls-2" d="M86.68,191.27A17.37,17.37,0,0,0,84.29,190c-.83-.37-1.61-.76-2.32-1.16a6.77,6.77,0,0,1-1.75-1.35,2.51,2.51,0,0,1-.67-1.8,3.35,3.35,0,0,1,.32-1.39,4,4,0,0,1,.91-1.28,4.79,4.79,0,0,1,1.48-1,6.26,6.26,0,0,1,3.75-.18,7.34,7.34,0,0,1,1.89.69l.08,0,.49-.08.24-1.13-.18-.08a8.36,8.36,0,0,0-2.26-.76,11.48,11.48,0,0,0-1.88-.18,7.29,7.29,0,0,0-2.48.41A6.25,6.25,0,0,0,80,181.92a5,5,0,0,0-1.26,1.66,4.66,4.66,0,0,0-.46,2,4,4,0,0,0,.78,2.52,7.15,7.15,0,0,0,1.88,1.7,16.36,16.36,0,0,0,2.39,1.25,18.59,18.59,0,0,1,2.32,1.16,7.62,7.62,0,0,1,1.75,1.43,2.78,2.78,0,0,1,.67,1.92,3.63,3.63,0,0,1-.35,1.53,4.21,4.21,0,0,1-1,1.34,5,5,0,0,1-1.58,1,6.93,6.93,0,0,1-4.47,0,7.21,7.21,0,0,1-2.23-1.08l-.09-.07-.51.1-.06,1.1.12.08a7.76,7.76,0,0,0,2.49,1.14,10.43,10.43,0,0,0,2.64.37,7.1,7.1,0,0,0,2.56-.46,6.54,6.54,0,0,0,2-1.19,5.58,5.58,0,0,0,1.31-1.74,5,5,0,0,0,.48-2.12,4.2,4.2,0,0,0-.79-2.59A7.06,7.06,0,0,0,86.68,191.27Z"/><path class="cls-2" d="M102.63,191.27a17.84,17.84,0,0,0-2.38-1.26c-.84-.37-1.62-.76-2.33-1.16a6.77,6.77,0,0,1-1.75-1.35,2.51,2.51,0,0,1-.67-1.8,3.35,3.35,0,0,1,.32-1.39,4,4,0,0,1,.91-1.28,4.79,4.79,0,0,1,1.48-1,6.26,6.26,0,0,1,3.75-.18,7.34,7.34,0,0,1,1.89.69l.08,0,.49-.08.24-1.13-.18-.08a8.36,8.36,0,0,0-2.26-.76,11.48,11.48,0,0,0-1.88-.18,7.29,7.29,0,0,0-2.48.41,6.25,6.25,0,0,0-1.94,1.12,5,5,0,0,0-1.26,1.66,4.66,4.66,0,0,0-.46,2,4,4,0,0,0,.78,2.52,7.15,7.15,0,0,0,1.88,1.7,16.36,16.36,0,0,0,2.39,1.25,18.59,18.59,0,0,1,2.32,1.16,7.62,7.62,0,0,1,1.75,1.43,2.78,2.78,0,0,1,.67,1.92,3.63,3.63,0,0,1-.35,1.53,4.21,4.21,0,0,1-1,1.34,5,5,0,0,1-1.58,1,6.93,6.93,0,0,1-4.47,0,7.21,7.21,0,0,1-2.23-1.08l-.09-.07-.51.1-.06,1.1.12.08a7.76,7.76,0,0,0,2.49,1.14,10.43,10.43,0,0,0,2.64.37,7.1,7.1,0,0,0,2.56-.46,6.42,6.42,0,0,0,2-1.19,5.58,5.58,0,0,0,1.31-1.74,4.84,4.84,0,0,0,.48-2.12,4.2,4.2,0,0,0-.79-2.59A7.06,7.06,0,0,0,102.63,191.27Z"/><rect class="cls-2" x="111.53" y="180.47" width="1.31" height="20.5"/><path class="cls-2" d="M127.4,180.47h-1.18L117.84,201h1.48l.52-1.58,1.68-4h10.15l1.5,4,.45,1.61h1.48l-2.3-6.24Zm3.79,13.62H122l4.73-11.58Z"/><path class="cls-2" d="M156.21,187.41a5.87,5.87,0,0,0,2.16-2,7.31,7.31,0,0,0,1-4.11,5.77,5.77,0,0,0-1.76-4.53,7.23,7.23,0,0,0-5-1.57l-5.12.08V201l.24,0c.7.05,1.44.08,2.23.1l2.1,0c3,0,5.27-.65,6.85-1.92a6.56,6.56,0,0,0,2.41-5.41,6,6,0,0,0-1.64-4.51A7.36,7.36,0,0,0,156.21,187.41Zm-7.33.92h5.21a7.45,7.45,0,0,1,4.47,1.62,4.86,4.86,0,0,1,1.53,3.81,5.2,5.2,0,0,1-2.05,4.41,9.79,9.79,0,0,1-6.06,1.61l-1.69,0c-.48,0-1,0-1.41-.08Zm0-1.42V176.57H153a5.29,5.29,0,0,1,3.75,1.27,4.55,4.55,0,0,1,1.36,3.48,6.18,6.18,0,0,1-1.12,3.83,5.08,5.08,0,0,1-3.2,1.87Z"/><path class="cls-2" d="M173.44,180.47h-1.18L163.87,201h1.48l.53-1.58,1.67-4H177.7l1.51,4,.45,1.61h1.47l-2.3-6.24Zm3.79,13.62h-9.15l4.72-11.58Z"/><polygon class="cls-2" points="187.69 199.7 187.69 180.47 186.38 180.47 186.38 200.97 195.82 200.97 196 200.02 195.78 199.7 187.69 199.7"/><path class="cls-2" d="M207.69,180.31l-6.86.17V201l.25,0,1.49.06,3.63.08,1.13,0a9,9,0,0,0,7.15-2.88c1.64-1.89,2.47-4.64,2.47-8.16,0-3.11-.8-5.54-2.38-7.23S210.67,180.31,207.69,180.31Zm-.32,19.55-1,0-3.18-.08-1.07,0v-17.9l1.1,0q.85,0,1.77-.06l1.66,0,1,0a7.82,7.82,0,0,1,5.95,2.15c1.35,1.43,2,3.56,2,6.32,0,3.15-.72,5.59-2.15,7.25A7.67,7.67,0,0,1,207.37,199.86Z"/><path class="cls-2" d="M230.07,180.31a8.41,8.41,0,0,0-6.75,2.74c-1.53,1.8-2.31,4.41-2.31,7.75s.76,5.88,2.25,7.65a8.06,8.06,0,0,0,6.46,2.68,8.35,8.35,0,0,0,6.73-2.8c1.55-1.85,2.33-4.51,2.33-7.93,0-3.2-.75-5.71-2.23-7.45A8.09,8.09,0,0,0,230.07,180.31Zm-.35,19.55a6.66,6.66,0,0,1-5.47-2.32c-1.25-1.55-1.89-3.83-1.89-6.78s.66-5.27,2-6.8a7.09,7.09,0,0,1,5.7-2.3,6.86,6.86,0,0,1,5.53,2.24c1.27,1.5,1.91,3.71,1.91,6.58,0,3-.67,5.38-2,7A7.08,7.08,0,0,1,229.72,199.86Z"/><polygon class="cls-2" points="258.71 180.59 258.68 198.49 246.04 180.47 244.86 180.47 244.82 194.79 244.82 200.97 246.13 200.97 246.16 183.04 258.76 200.97 259.94 200.97 260.02 180.39 258.71 180.59"/><path class="cls-1" d="M90.4,211.37l-3.38,0V226h1v-5.52H89.7a5,5,0,0,0,3.68-1.27,4.9,4.9,0,0,0,1.29-3.66,4.25,4.25,0,0,0-1.1-3.13A4.37,4.37,0,0,0,90.4,211.37Zm0,8.19H88v-7.21l2.56,0a2.95,2.95,0,0,1,3.16,3.26,4.19,4.19,0,0,1-.87,2.78A3.58,3.58,0,0,1,90.36,219.56Z"/><path class="cls-1" d="M104.81,219.09a12.37,12.37,0,0,0-1.65-.89,13.9,13.9,0,0,1-1.59-.82,4.64,4.64,0,0,1-1.19-1,1.86,1.86,0,0,1-.43-1.27,2.51,2.51,0,0,1,.21-1,3,3,0,0,1,.62-.93,3,3,0,0,1,1-.67,3.55,3.55,0,0,1,1.39-.26,5.68,5.68,0,0,1,1.13.14,5,5,0,0,1,1.26.45l.07,0,.42-.06.17-.77L106,212a5.94,5.94,0,0,0-1.55-.53,6.27,6.27,0,0,0-1.26-.14,4.91,4.91,0,0,0-1.71.29,4.46,4.46,0,0,0-1.34.8,3.72,3.72,0,0,0-.89,1.2,3.55,3.55,0,0,0-.31,1.44,3,3,0,0,0,.55,1.82,5.11,5.11,0,0,0,1.32,1.21,12.41,12.41,0,0,0,1.65.9,13.19,13.19,0,0,1,1.59.83,4.52,4.52,0,0,1,1.19,1,2.06,2.06,0,0,1,.43,1.35,2.55,2.55,0,0,1-.23,1.07,3,3,0,0,1-.68,1,3.44,3.44,0,0,1-1.08.69,4.66,4.66,0,0,1-3,0,4.52,4.52,0,0,1-1.48-.76l-.12-.09-.41.16,0,.73.11.08a5.46,5.46,0,0,0,1.7.81,6.61,6.61,0,0,0,1.82.28,4.7,4.7,0,0,0,1.75-.32,4.44,4.44,0,0,0,1.39-.85,3.71,3.71,0,0,0,1.24-2.77,3.15,3.15,0,0,0-.55-1.86A5.05,5.05,0,0,0,104.81,219.09Z"/><rect class="cls-1" x="112.03" y="211.41" width="0.96" height="14.62"/><path class="cls-1" d="M127.94,223.76a6.79,6.79,0,0,1-1.87,1.06,6,6,0,0,1-2,.37,4.27,4.27,0,0,1-3.63-1.62,7.77,7.77,0,0,1-1.27-4.79,7.68,7.68,0,0,1,1.32-4.85,4.64,4.64,0,0,1,3.84-1.64,5.57,5.57,0,0,1,1.83.3,5.67,5.67,0,0,1,1.6.88l.07.06h.42l.3-.72-.16-.12a6.17,6.17,0,0,0-1.91-1,6.77,6.77,0,0,0-2.15-.34,5.57,5.57,0,0,0-4.56,1.94,8.51,8.51,0,0,0-1.56,5.49,8.71,8.71,0,0,0,1.49,5.45,5.25,5.25,0,0,0,4.39,1.94,6.72,6.72,0,0,0,2.22-.4,7.83,7.83,0,0,0,2.08-1.14l.09-.06.08-.73-.5-.14Z"/><path class="cls-1" d="M138.22,211.3a5.74,5.74,0,0,0-4.64,1.95,10.32,10.32,0,0,0-.05,11,5.41,5.41,0,0,0,4.47,1.94,5.66,5.66,0,0,0,4.65-2,8.77,8.77,0,0,0,1.61-5.66,8.16,8.16,0,0,0-1.54-5.31A5.54,5.54,0,0,0,138.22,211.3ZM138,225.19a4.45,4.45,0,0,1-3.74-1.63,7.64,7.64,0,0,1-1.31-4.8,7.5,7.5,0,0,1,1.37-4.85,4.77,4.77,0,0,1,3.9-1.64,4.63,4.63,0,0,1,3.77,1.57,7.22,7.22,0,0,1,1.31,4.65,7.9,7.9,0,0,1-1.38,5A4.75,4.75,0,0,1,138,225.19Z"/><polygon class="cls-1" points="150.4 225.08 150.4 211.41 149.44 211.41 149.44 226.04 156.1 226.04 156.27 225.37 156.05 225.08 150.4 225.08"/><path class="cls-1" d="M165.35,211.3a5.74,5.74,0,0,0-4.64,1.95,10.38,10.38,0,0,0-.05,11,5.41,5.41,0,0,0,4.47,1.94,5.66,5.66,0,0,0,4.65-2,8.77,8.77,0,0,0,1.61-5.66,8.16,8.16,0,0,0-1.54-5.31A5.54,5.54,0,0,0,165.35,211.3Zm-.22,13.89a4.47,4.47,0,0,1-3.74-1.63,7.64,7.64,0,0,1-1.31-4.8,7.5,7.5,0,0,1,1.37-4.85,4.77,4.77,0,0,1,3.9-1.64,4.63,4.63,0,0,1,3.77,1.57,7.22,7.22,0,0,1,1.31,4.65,7.84,7.84,0,0,1-1.38,5A4.74,4.74,0,0,1,165.13,225.19Z"/><path class="cls-1" d="M182,212.29a5.8,5.8,0,0,1,1.75.28,9.11,9.11,0,0,1,1.81.83l.07,0h.41l.26-.78-.18-.1a9.61,9.61,0,0,0-2.07-.91,6.88,6.88,0,0,0-2.05-.32,6.44,6.44,0,0,0-5,1.95,8.1,8.1,0,0,0-1.75,5.57,8.38,8.38,0,0,0,1.54,5.39,5.47,5.47,0,0,0,4.48,1.91h0l1.13-.07c.36,0,.72-.07,1.08-.13s.74-.14,1.13-.24l1.33-.34.19-.06v-5.09l-1,.1v4.27l-1,.26c-.35.08-.69.15-1,.2s-.63.08-.92.11-.62,0-1,0a4.53,4.53,0,0,1-3.72-1.6,7.39,7.39,0,0,1-1.31-4.72,7.18,7.18,0,0,1,1.51-4.91A5.5,5.5,0,0,1,182,212.29Z"/><path class="cls-1" d="M196.65,211.41h-.8L190,226h1.11l.36-1.12,1.44-3.6h6.33l1.33,3.59.34,1.13H202Zm-3.34,9,2.91-7.32,2.69,7.32Z"/><path class="cls-2" d="M102.89,153.23l-4.86.12v14.39l.26,0c.26,0,.61,0,1,0l2.52.06h.79a6.3,6.3,0,0,0,5-2,8.55,8.55,0,0,0,1.74-5.73,7.16,7.16,0,0,0-1.68-5.08A6.36,6.36,0,0,0,102.89,153.23Zm-3.75,1.25.66,0,1.23-.05,1.15,0,.68,0a5.34,5.34,0,0,1,4,1.46,6.07,6.07,0,0,1,1.39,4.31,7.45,7.45,0,0,1-1.47,5,5.2,5.2,0,0,1-4.16,1.68H102l-2.21-.06-.64,0Z"/><path class="cls-2" d="M118.41,153.23a5.9,5.9,0,0,0-4.76,1.94,9.88,9.88,0,0,0,0,10.81,5.66,5.66,0,0,0,4.55,1.89,5.89,5.89,0,0,0,4.75-2,8.42,8.42,0,0,0,1.64-5.56A7.87,7.87,0,0,0,123,155.1,5.7,5.7,0,0,0,118.41,153.23Zm-3.9,2.7a4.82,4.82,0,0,1,3.87-1.56,4.68,4.68,0,0,1,3.76,1.52,6.84,6.84,0,0,1,1.3,4.5,7.31,7.31,0,0,1-1.37,4.77,4.77,4.77,0,0,1-3.91,1.62,4.44,4.44,0,0,1-3.7-1.56,7.25,7.25,0,0,1-1.3-4.64A7,7,0,0,1,114.51,155.93Z"/><polygon class="cls-2" points="126.85 153.34 126.71 154.16 126.95 154.49 131.19 154.46 131.19 167.76 132.3 167.76 132.3 154.46 136.6 154.49 136.75 153.73 136.59 153.34 126.85 153.34"/><polygon class="cls-2" points="138.57 153.34 138.43 154.16 138.67 154.49 142.91 154.46 142.91 167.76 144.02 167.76 144.02 154.46 148.32 154.49 148.46 153.73 148.31 153.34 138.57 153.34"/><path class="cls-2" d="M152.44,166.15a.83.83,0,1,0,.83.83A.76.76,0,0,0,152.44,166.15Z"/><path class="cls-2" d="M163.31,160.85a11.9,11.9,0,0,0-1.66-.89c-.57-.25-1.11-.51-1.61-.79a5.15,5.15,0,0,1-1.19-.92,1.65,1.65,0,0,1-.43-1.18,2.23,2.23,0,0,1,.21-.92,2.77,2.77,0,0,1,.61-.86,3.38,3.38,0,0,1,1-.64,4.31,4.31,0,0,1,2.55-.12,5.13,5.13,0,0,1,1.28.47l.08,0,.45-.07.19-.93-.2-.09a6,6,0,0,0-1.59-.54,8.48,8.48,0,0,0-1.32-.12,5,5,0,0,0-1.75.29,4.23,4.23,0,0,0-1.38.79,3.51,3.51,0,0,0-.9,1.19,3.29,3.29,0,0,0-.33,1.46,2.89,2.89,0,0,0,.56,1.81A5.32,5.32,0,0,0,159.2,160a12.53,12.53,0,0,0,1.67.87,13.26,13.26,0,0,1,1.6.8,5,5,0,0,1,1.19,1,1.84,1.84,0,0,1,.43,1.27,2.29,2.29,0,0,1-.23,1,2.91,2.91,0,0,1-.66.9,3.44,3.44,0,0,1-1.06.64,4.66,4.66,0,0,1-3,0,5,5,0,0,1-1.52-.74l-.1-.07-.47.09-.05.9.13.09a5.78,5.78,0,0,0,1.76.81,7.21,7.21,0,0,0,1.85.25,5.06,5.06,0,0,0,1.81-.32,4.55,4.55,0,0,0,1.42-.85,4.12,4.12,0,0,0,.93-1.23,3.63,3.63,0,0,0,.34-1.52,3,3,0,0,0-.56-1.86A5,5,0,0,0,163.31,160.85Z"/><path class="cls-2" d="M174.37,160.85a11.9,11.9,0,0,0-1.66-.89c-.57-.25-1.11-.51-1.61-.79a5.15,5.15,0,0,1-1.19-.92,1.65,1.65,0,0,1-.43-1.18,2.23,2.23,0,0,1,.21-.92,2.77,2.77,0,0,1,.61-.86,3.38,3.38,0,0,1,1-.64,4.31,4.31,0,0,1,2.55-.12,5.13,5.13,0,0,1,1.28.47l.08,0,.45-.07.2-.93-.2-.09a6.17,6.17,0,0,0-1.6-.54,8.48,8.48,0,0,0-1.32-.12,5,5,0,0,0-1.75.29,4.33,4.33,0,0,0-1.38.79,3.51,3.51,0,0,0-.9,1.19,3.29,3.29,0,0,0-.33,1.46,2.89,2.89,0,0,0,.56,1.81,5.32,5.32,0,0,0,1.33,1.21,12.07,12.07,0,0,0,1.68.87,13.88,13.88,0,0,1,1.59.8,5,5,0,0,1,1.19,1,1.85,1.85,0,0,1,.44,1.27,2.3,2.3,0,0,1-.24,1,2.76,2.76,0,0,1-.66.9,3.44,3.44,0,0,1-1.06.64,4.66,4.66,0,0,1-3,0,5,5,0,0,1-1.52-.74l-.1-.07-.47.09-.05.9.13.09a5.78,5.78,0,0,0,1.76.81,7.21,7.21,0,0,0,1.85.25,5.16,5.16,0,0,0,1.82-.32,4.61,4.61,0,0,0,1.41-.85,4,4,0,0,0,.93-1.23,3.48,3.48,0,0,0,.34-1.52,3,3,0,0,0-.56-1.86A5,5,0,0,0,174.37,160.85Z"/><path class="cls-2" d="M188.85,163.3l-3.77-10h-1l-5.9,14.42h1.26l.38-1.16,1.14-2.73h6.89l1,2.7.33,1.19h1.25Zm-7.4-.51,3.11-7.65,2.93,7.65Z"/></svg>