<svg width="90" height="90" xmlns="http://www.w3.org/2000/svg" xmlns:svg="http://www.w3.org/2000/svg">
 <defs>
  <style>.cls-1{fill:gray;}.cls-2{fill:#247ea4;}</style>
 </defs>
 <title>AB_logo</title>
 <g>
  <title>Layer 1</title>
  <path fill="black" id="svg_1" d="m77.35543,53.685195c-1.37,2 -4.07,2.23 -4.76,-0.57a9,9 0 0 0 -0.64,0.95a54.81,54.81 0 0 1 -10.72,15.77a5.8,5.8 0 0 1 -2.61,1.41a4,4 0 0 1 -5.09,-4.17a5.73,5.73 0 0 1 1.6,-3.18c1.17,-1.52 5.74,-5 10.56,-15.41a26.16,26.16 0 0 0 1.61,-15.47a25.61,25.61 0 0 0 -6.49,-12.72a30.49,30.49 0 0 0 -9.53,-7c-2.4,-1 -4.27,-2 -7.16,-2.18a43,43 0 0 0 -7.52,-0.22a27.76,27.76 0 0 0 -8.73,2.59a20,20 0 0 0 -2.16,1.23a24.87,24.87 0 0 1 -6.21,2.85c-1.63,0.14 -1.3,-1.69 -0.65,-3.3c0.47,-1.17 2.17,-3.93 3.25,-4.65a41.09,41.09 0 0 1 15.17,-6.4a42.12,42.12 0 0 1 14.38,-0.39a44.65,44.65 0 0 1 8.5,2.21a38.67,38.67 0 0 1 10.24,5.62a40.32,40.32 0 0 1 10.69,11.83a41.8,41.8 0 0 1 5,12.8a41.16,41.16 0 0 1 0.89,8a43.81,43.81 0 0 1 -0.54,7.13a48.24,48.24 0 0 1 -2.62,9.36a34.85,34.85 0 0 1 -3.39,6.38a6.09,6.09 0 0 1 -2.16,2.38a4.07,4.07 0 0 1 -5.83,-3.09a4.48,4.48 0 0 1 1.17,-3.5a15.82,15.82 0 0 0 1.6,-2.68c0.89,-1.73 1.94,-3.43 2.15,-5.58z" class="cls-1"/>
  <path fill="black" id="svg_2" d="m13.250586,35.513672c1.4,-1.93 4.12,-2.15 4.75,0.66a8.18,8.18 0 0 0 0.65,-0.94a55.12,55.12 0 0 1 11,-15.55a5.8,5.8 0 0 1 2.7,-1.38a4,4 0 0 1 5,4.26a5.75,5.75 0 0 1 -1.66,3.16a49.61,49.61 0 0 0 -10.88,15.19a26,26 0 0 0 -1.92,15.43a25.52,25.52 0 0 0 6.24,12.85a30.5,30.5 0 0 0 9.38,7.19c2.39,1 4.24,2 7.13,2.32a42.67,42.67 0 0 0 7.5,0.38a28.07,28.07 0 0 0 8.79,-2.42a21,21 0 0 0 2.18,-1.19a25,25 0 0 1 6.27,-2.73c1.63,-0.1 1.26,1.73 0.58,3.32c-0.5,1.16 -2.25,3.89 -3.34,4.59a41.46,41.46 0 0 1 -15.3,6.09a42.15,42.15 0 0 1 -14.39,0.1a44.84,44.84 0 0 1 -8.45,-2.38a38.79,38.79 0 0 1 -10.13,-5.82a40.27,40.27 0 0 1 -10.44,-12a41.64,41.64 0 0 1 -5.49,-21a43.67,43.67 0 0 1 0.69,-7.11a47.82,47.82 0 0 1 2.77,-9.27a34.82,34.82 0 0 1 3.52,-6.31a6.12,6.12 0 0 1 2.21,-2.34a4.07,4.07 0 0 1 5.74,3.21a4.51,4.51 0 0 1 -1.23,3.48a15.41,15.41 0 0 0 -1.66,2.64a15.82,15.82 0 0 0 -2.21,5.57z" class="cls-2"/>
 </g>
</svg>